<?xml version="1.0" standalone="no"?>
<!DOCTYPE svg PUBLIC "-//W3C//DTD SVG 20010904//EN"
 "http://www.w3.org/TR/2001/REC-SVG-20010904/DTD/svg10.dtd">
<svg version="1.0" xmlns="http://www.w3.org/2000/svg"
 width="500.000000pt" height="500.000000pt" viewBox="0 0 500.000000 500.000000"
 preserveAspectRatio="xMidYMid meet">
<metadata>
Created by potrace 1.16, written by Peter Selinger 2001-2019
</metadata>
<g transform="translate(0.000000,500.000000) scale(0.100000,-0.100000)"
fill="#000000" stroke="none">
<path d="M2150 3629 c-93 -12 -216 -61 -278 -112 -47 -38 -126 -123 -146 -157
-18 -31 -18 -32 0 -22 54 28 115 52 133 52 10 0 39 19 63 42 62 59 149 113
226 139 55 19 89 23 184 23 120 0 133 8 43 25 -83 16 -156 19 -225 10z"/>
<path d="M2455 3581 c-3 -6 -24 -11 -47 -11 -114 0 -267 -70 -365 -168 -108
-108 -153 -220 -153 -381 0 -90 4 -116 27 -176 31 -83 43 -104 100 -172 79
-95 257 -183 370 -183 27 0 42 -4 38 -10 -9 -15 -176 -12 -238 4 -181 47 -344
196 -395 360 -11 33 -30 94 -42 135 -29 94 -29 145 -1 205 29 59 38 55 11 -5
-22 -48 -26 -109 -9 -140 5 -11 15 -17 21 -13 18 11 46 87 53 144 6 52 24 121
41 164 7 17 4 18 -31 12 -42 -8 -123 -46 -156 -74 -33 -27 -66 -85 -84 -146
-16 -56 -16 -65 10 -128 6 -14 2 -14 -33 4 -54 26 -140 34 -199 18 -50 -14
-120 -46 -128 -60 -3 -4 21 -21 53 -36 31 -16 70 -40 85 -54 74 -66 181 -98
222 -67 20 15 19 16 -13 49 -18 19 -64 50 -102 68 -39 19 -70 37 -70 42 0 4
21 8 48 8 57 -1 151 -45 169 -81 7 -13 32 -64 55 -114 74 -157 218 -278 383
-324 108 -30 291 -20 380 21 23 10 18 13 -57 33 -112 29 -181 68 -253 140
-103 103 -145 206 -145 355 0 148 54 270 163 370 41 39 134 96 168 105 29 7
21 22 88 -160 22 -60 66 -177 96 -260 31 -82 71 -193 90 -245 18 -52 37 -106
43 -120 6 -14 23 -59 37 -100 15 -41 34 -91 42 -111 l16 -36 90 -7 c49 -3 111
-5 136 -4 31 1 20 4 -33 7 l-78 6 -24 64 c-12 36 -21 68 -18 73 3 4 1 8 -4 8
-14 0 -64 164 -56 186 4 13 3 15 -3 7 -7 -9 -14 -2 -24 25 -26 63 -41 106 -46
132 -3 14 -10 30 -14 36 -5 6 -10 23 -11 38 -1 14 -6 26 -10 26 -4 0 -12 17
-17 38 -14 47 -14 55 1 46 7 -4 8 -3 4 5 -4 6 -12 9 -17 6 -5 -4 -9 -5 -9 -3
0 2 -11 34 -25 72 -14 37 -22 73 -18 79 4 6 1 7 -7 2 -10 -6 -12 -3 -8 13 4
14 2 20 -5 15 -6 -4 -8 0 -4 10 3 10 3 17 -2 17 -12 0 -34 76 -26 90 5 9 4 11
-3 6 -7 -4 -12 -6 -12 -4 0 2 -4 18 -9 36 l-10 33 92 -2 c92 -2 167 -20 224
-54 26 -16 26 -15 -5 13 -54 48 -150 91 -252 111 -25 5 -52 12 -61 15 -10 4
-20 3 -24 -3z"/>
<path d="M3135 3484 c-8 -20 -15 -39 -15 -41 0 -5 -187 -539 -217 -621 -11
-30 -19 -39 -24 -30 -5 7 -9 9 -9 4 0 -5 6 -17 13 -25 16 -20 32 -69 47 -143
12 -59 30 -79 30 -33 0 14 -1 26 -2 28 -2 2 5 15 15 30 9 15 15 27 11 27 -4 0
-1 7 6 15 6 8 9 19 5 25 -4 6 -2 16 3 23 6 7 10 14 9 17 -5 14 27 88 36 83 6
-4 7 -1 2 7 -4 7 -2 16 6 21 12 7 12 9 0 9 -9 0 -10 4 -3 13 5 6 13 28 17 47
4 19 11 41 16 50 8 14 79 219 79 227 0 2 5 1 12 -3 7 -5 8 -3 3 6 -9 14 14 90
27 90 5 0 7 4 4 9 -3 5 10 52 29 105 l35 96 -60 0 c-59 0 -60 0 -75 -36z"/>
<path d="M3382 3420 c1 -8 -4 -28 -10 -43 -22 -53 -25 -52 163 -49 l174 3 4
-78 c2 -62 3 -55 5 40 l2 117 -164 0 c-122 0 -166 3 -170 13 -4 8 -5 7 -4 -3z"/>
<path d="M3254 3067 c-3 -15 -10 -27 -16 -27 -5 0 -6 -5 -3 -10 4 -6 1 -19 -7
-28 -12 -15 -11 -16 4 -4 12 9 18 10 23 2 5 -9 10 -9 18 -1 15 15 317 15 317
0 0 -5 5 -7 10 -4 6 3 10 24 10 46 l0 39 -53 0 c-30 0 -108 3 -175 7 l-121 6
-7 -26z"/>
<path d="M1817 2232 c-10 -10 -17 -28 -17 -40 l0 -22 -270 0 c-239 0 -312 -7
-251 -23 14 -3 19 -14 19 -52 2 -59 9 -82 29 -89 22 -9 62 19 74 51 13 34 5
53 -21 53 -26 0 -60 17 -60 30 0 6 50 10 120 10 73 0 120 -4 120 -10 0 -10
-23 -14 -71 -10 -31 2 -52 -21 -47 -52 2 -17 10 -23 28 -23 16 0 25 6 25 15 0
9 -7 14 -17 12 -23 -4 -24 17 -2 25 10 4 22 -1 30 -11 12 -16 13 -16 22 0 18
32 42 9 42 -41 0 -25 5 -45 10 -45 6 0 10 30 10 70 l0 70 70 0 70 0 0 -37 0
-37 -20 22 c-32 34 -86 24 -78 -14 4 -23 38 -32 38 -10 0 9 4 16 9 16 12 0 48
-46 56 -71 13 -41 25 -15 25 56 0 73 1 75 25 75 24 0 25 -2 25 -70 0 -40 4
-70 10 -70 6 0 10 30 10 70 l0 70 70 0 c39 0 70 -2 70 -5 0 -3 -20 -14 -45
-26 -52 -25 -60 -53 -17 -64 15 -3 42 -18 60 -31 l32 -25 0 75 0 76 80 0 c47
0 80 -4 80 -10 0 -10 -26 -14 -71 -11 -31 2 -52 -20 -47 -51 2 -17 10 -23 27
-23 13 0 26 6 29 13 2 7 -5 12 -17 12 -25 0 -28 18 -5 27 11 4 22 -1 30 -12
13 -18 14 -18 14 -1 0 12 6 16 23 14 19 -3 22 -10 25 -50 5 -74 22 -56 22 22
0 56 3 70 15 70 8 0 15 5 15 10 0 6 -71 10 -194 10 -203 0 -215 3 -194 43 10
20 61 23 104 7 16 -7 31 -7 36 -2 13 13 -45 32 -97 32 -28 0 -47 -6 -58 -18z"/>
<path d="M2296 2234 c-9 -8 -16 -26 -16 -40 0 -15 -6 -24 -15 -24 -8 0 -15 -4
-15 -10 0 -5 9 -10 20 -10 18 0 20 -7 20 -70 0 -40 4 -70 10 -70 6 0 10 30 10
70 l0 70 134 0 135 0 -6 -52 c-6 -65 18 -105 56 -93 27 8 22 30 -7 29 -27 -1
-37 36 -22 82 l12 34 94 0 c56 0 94 -4 94 -10 0 -5 -12 -10 -27 -11 -92 -3
-88 -1 -88 -39 0 -29 4 -36 23 -38 19 -3 23 0 20 15 -2 10 -10 17 -16 16 -7
-2 -12 4 -12 12 0 20 19 19 42 -2 17 -15 18 -15 18 1 0 11 6 16 18 14 13 -2
18 -15 20 -51 5 -73 22 -55 22 23 l0 70 60 0 60 0 -6 -28 c-8 -40 33 -81 51
-52 10 16 25 11 25 -8 0 -42 -54 -57 -84 -23 -10 11 -24 37 -31 58 -11 30 -15
34 -20 20 -9 -21 11 -73 39 -98 23 -22 74 -25 101 -5 11 8 18 26 18 45 0 42
-15 56 -42 40 -28 -18 -48 0 -32 30 14 26 17 26 66 1 38 -19 39 -21 37 -72 -1
-29 2 -60 8 -68 5 -8 10 -10 10 -5 0 6 2 40 4 77 l3 66 -31 8 c-30 8 -29 8 17
12 26 1 47 7 47 13 0 5 -157 9 -404 9 -364 0 -404 2 -410 16 -15 40 44 54 122
29 14 -5 22 -3 22 4 0 30 -127 43 -154 15z"/>
<path d="M3160 2162 c0 -5 16 -17 35 -28 38 -20 43 -29 20 -38 -25 -9 -17 -34
13 -41 26 -6 72 -37 72 -49 0 -3 -11 -6 -24 -6 -28 0 -42 -26 -25 -46 15 -18
28 -18 51 3 16 14 23 15 38 5 25 -15 30 -15 30 1 0 8 -11 19 -25 25 -22 10
-25 18 -25 67 0 56 8 65 40 45 13 -8 12 -11 -4 -23 -20 -15 -15 -37 9 -37 19
0 34 28 27 52 -5 21 -40 38 -78 38 -21 0 -24 -4 -24 -40 0 -43 2 -42 -49 -13
-2 2 2 10 10 19 11 14 10 19 -11 35 -25 18 -24 19 118 19 l142 0 0 -35 c0 -40
21 -55 51 -37 10 7 21 8 24 3 8 -14 -5 -41 -27 -52 -27 -15 -69 16 -83 59 -5
18 -15 32 -21 32 -9 0 -10 -8 -5 -28 19 -66 63 -99 114 -87 34 9 54 56 38 92
-11 24 -13 25 -31 8 -23 -21 -40 -12 -40 21 0 23 3 24 56 24 62 0 114 -27 114
-59 0 -24 -11 -33 -26 -20 -8 7 -14 6 -19 -2 -7 -10 10 -28 27 -29 5 0 20 13
35 30 32 36 53 26 53 -26 0 -24 5 -34 15 -34 12 0 15 14 15 70 0 56 3 70 15
70 8 0 15 5 15 10 0 6 -117 10 -330 10 -181 0 -330 -4 -330 -8z"/>
<path d="M2063 1793 c-5 -10 -6 -40 -2 -68 l6 -50 1 48 2 47 45 0 c45 0 45 0
45 -35 0 -34 -1 -35 -22 -25 -21 10 -20 9 2 -9 l25 -20 3 44 c3 41 6 45 28 45
21 0 24 -4 19 -20 -5 -17 -2 -20 25 -20 28 0 31 2 24 22 -6 20 -5 21 10 9 17
-14 23 -71 7 -71 -15 0 -23 18 -11 23 6 3 5 4 -2 3 -22 -4 -19 -22 7 -34 19
-9 25 -9 26 1 0 6 1 27 2 46 3 56 27 51 29 -6 l1 -48 6 45 c5 36 10 46 27 48
18 3 21 -2 20 -40 -1 -39 1 -43 24 -45 22 -1 22 -1 3 4 -17 3 -23 11 -23 32 0
16 6 33 13 38 18 15 119 11 124 -4 3 -8 -5 -13 -21 -13 -14 0 -26 5 -26 10 0
6 -5 10 -11 10 -8 0 -8 -4 1 -15 15 -18 3 -38 -19 -30 -13 5 -13 4 -4 -6 10
-10 17 -9 32 5 25 22 48 15 54 -16 2 -13 5 -2 6 25 l1 47 39 0 c36 0 40 -3 46
-31 9 -38 2 -45 -25 -26 -21 14 -21 16 -3 26 14 8 15 10 2 11 -8 0 -20 -5 -26
-11 -9 -9 -3 -18 23 -35 19 -13 37 -24 38 -24 2 0 6 23 8 50 l3 51 -172 -1
c-96 -1 -175 -6 -179 -11 -3 -5 -11 -6 -17 -2 -13 9 -14 9 -129 11 -72 2 -102
14 -60 25 16 4 16 5 0 6 -10 0 -21 -7 -25 -16z"/>
</g>
</svg>
